# xmcd
#
# Track frame offsets: 
#        150
#        27346
#        49176
#        68476
#        88314
#        120740
#        139867
#        161241
#        188045
#
# Disc length: 2936 seconds
#
# Revision: 0
# Processed by: cddbd v1.5.2PL0 Copyright (c) Steve Scherf et al.
# Submitted via: ExactAudioCopyFreeDBPlugin 1.0
#
DISCID=7d0b7609
DTITLE=瑶山百霊 - 上海TH05東方夢靈夢纪念CD
DYEAR=1900
DGENRE=
TTITLE0=傷ノ林檎
TTITLE1=Star Dazzled
TTITLE2=禁忌月下
TTITLE3=帰郷 原曲
TTITLE4=冬がとけたら…
TTITLE5=紫雲の彼方
TTITLE6=Deja vu
TTITLE7=紫与白 ~ Purple  - White ~
TTITLE8=Bonus Track. 幻想乡第一套广播体操
EXTD=
EXTT0=
EXTT1=
EXTT2=
EXTT3=
EXTT4=
EXTT5=
EXTT6=
EXTT7=
EXTT8=
PLAYORDER=
